<svg width="241" height="233" viewBox="0 0 241 233" fill="none" xmlns="http://www.w3.org/2000/svg">
<g clip-path="url(#clip0)">
<path d="M70.77 50.4938C70.461 48.013 68.291 42.7412 62.833 43.4225C59.815 43.7993 55.887 48.3208 60.909 52.2287C65.322 55.6622 65.373 63.7646 65.373 63.7646C65.373 63.7646 71.452 55.9514 70.77 50.4938Z" fill="#FC716F"/>
<path d="M90.802 84.627C93.302 84.6 98.818 86.041 98.878 91.54C98.91 94.582 94.959 99.083 90.41 94.632C86.414 90.721 78.379 91.762 78.379 91.762C78.379 91.762 85.303 84.687 90.802 84.627Z" fill="#FC716F"/>
<path d="M188.447 92.511C190.862 91.864 195.786 88.991 194.363 83.679C193.576 80.741 188.558 77.4696 185.376 82.981C182.58 87.823 174.561 88.985 174.561 88.985C174.561 88.985 183.134 93.934 188.447 92.511Z" fill="#FC716F"/>
<path d="M81.863 75.4212C86.39 72.5413 94.999 64.0803 90.043 56.2886C87.302 51.9799 76.04 50.2713 71.946 61.8303C68.349 71.9861 52.9174 79.904 52.9174 79.904C52.9174 79.904 71.902 81.757 81.863 75.4212Z" fill="#E65755"/>
<path d="M23.4197 53.8492C22.4432 50.2049 22.4815 41.6015 30.4991 39.4532C34.9326 38.2652 42.9944 42.3546 38.1923 50.6721C33.9732 57.9798 38.5063 69.3367 38.5063 69.3367C38.5063 69.3367 25.568 61.8667 23.4197 53.8492Z" fill="#E65755"/>
<path d="M138.025 49.93C140.763 49.1962 147.274 49.3988 149.059 56.0606C150.046 59.7443 147.112 66.3187 140.722 62.189C134.333 58.0592 125.699 60.2325 125.699 60.2325C125.699 60.2325 132 51.5442 138.025 49.93Z" fill="#E65755"/>
<path d="M79.011 33.6494C80.462 28.1362 84.511 24.1231 89.208 27.5254C92.072 29.5994 95.013 35.696 86.922 39.9484C80.848 43.1406 77.526 46.761 77.526 46.761C77.526 46.761 77.99 37.5291 79.011 33.6494Z" fill="#FFB6B5"/>
<path d="M137.19 95.943C141.74 96.112 145.74 93.937 144.217 89.537C143.289 86.855 139.302 83.176 134.19 88.401C130.352 92.323 126.82 94.031 126.82 94.031C126.82 94.031 133.988 95.824 137.19 95.943Z" fill="#FFB6B5"/>
<path d="M59.191 10.8647C61.8216 12.3835 65.1854 11.4822 66.7041 8.85157C68.2229 6.22096 67.3216 2.85722 64.691 1.33844C62.0604 -0.180344 58.6966 0.72097 57.1779 3.35158C55.6591 5.98219 56.5604 9.34593 59.191 10.8647Z" fill="#FFB6B5"/>
<path d="M113.323 27.1064C115.954 28.6252 119.317 27.7239 120.836 25.0933C122.355 22.4627 121.454 19.0989 118.823 17.5801C116.192 16.0614 112.829 16.9627 111.31 19.5933C109.791 22.2239 110.692 25.5876 113.323 27.1064Z" fill="#FC716F"/>
<path d="M154.203 122.3C156.834 123.819 160.197 122.918 161.716 120.287C163.235 117.656 162.334 114.293 159.703 112.774C157.072 111.255 153.709 112.156 152.19 114.787C150.671 117.418 151.572 120.781 154.203 122.3Z" fill="#FC716F"/>
<path d="M108.251 51.891C109.925 52.8575 112.066 52.284 113.032 50.6099C113.999 48.9359 113.425 46.7954 111.751 45.8289C110.077 44.8624 107.936 45.4359 106.97 47.1099C106.003 48.784 106.577 50.9245 108.251 51.891Z" fill="#FFB6B5"/>
<path d="M178.445 54.3122C180.119 55.2787 182.26 54.7051 183.226 53.0311C184.193 51.3571 183.619 49.2165 181.945 48.25C180.271 47.2835 178.13 47.8571 177.164 49.5311C176.197 51.2051 176.771 53.3457 178.445 54.3122Z" fill="#FFB6B5"/>
<path fill-rule="evenodd" clip-rule="evenodd" d="M178.205 177.727C153.352 220.773 98.309 235.522 55.263 210.669C12.2165 185.816 -2.5323 130.773 22.3205 87.727L13.6603 82.727C-13.954 130.556 2.4335 191.715 50.2628 219.33C98.092 246.944 159.251 230.556 186.865 182.727L178.205 177.727Z" fill="#237646"/>
<path fill-rule="evenodd" clip-rule="evenodd" d="M176.382 189.583L180.392 192.57C182.712 189.455 184.876 186.173 186.865 182.727L178.205 177.727C176.41 180.835 174.461 183.793 172.373 186.596L176.382 189.583ZM13.6603 82.727C11.6708 86.173 9.90981 89.688 8.37241 93.254L12.964 95.234L17.5556 97.213C18.9394 94.002 20.5259 90.835 22.3205 87.727L13.6603 82.727ZM8.15941 109.343L3.31391 108.11C1.35401 115.811 0.34831 123.634 0.25351 131.417L5.25311 131.478L10.2528 131.539C10.3381 124.536 11.2429 117.5 13.005 110.576L8.15941 109.343ZM6.24121 146.355L1.29351 147.076C2.42661 154.855 4.47001 162.481 7.37831 169.785L12.0236 167.935L16.6688 166.086C14.0498 159.508 12.2095 152.64 11.189 145.635L6.24121 146.355ZM18.6065 181.313L14.3071 183.866C18.2809 190.559 23.0634 196.831 28.6113 202.521L32.1911 199.03L35.7709 195.539C30.7828 190.424 26.4814 184.783 22.9058 178.761L18.6065 181.313ZM43.4065 208.847L40.4197 212.856C43.5344 215.177 46.817 217.34 50.2628 219.33C53.7086 221.319 57.224 223.08 60.79 224.617L62.769 220.026L64.749 215.434C61.538 214.05 58.371 212.464 55.263 210.669C52.1545 208.875 49.1969 206.925 46.3934 204.837L43.4065 208.847ZM76.878 224.83L75.645 229.676C83.347 231.636 91.17 232.641 98.953 232.736L99.014 227.737L99.075 222.737C92.071 222.652 85.036 221.747 78.112 219.985L76.878 224.83ZM137.321 225.611C130.017 228.52 122.391 230.563 114.612 231.696L113.891 226.749L113.17 221.801C120.176 220.78 127.044 218.94 133.621 216.321L135.471 220.966L137.321 225.611ZM148.849 214.383L151.402 218.683C158.095 214.709 164.367 209.926 170.057 204.379L166.566 200.799L163.075 197.219C157.96 202.207 152.319 206.508 146.297 210.084L148.849 214.383Z" fill="#27AE60"/>
<path d="M174.741 175.727C169.094 185.508 161.576 194.08 152.616 200.955C143.656 207.83 133.43 212.874 122.521 215.797C111.612 218.72 100.235 219.465 89.038 217.991C77.84 216.517 67.043 212.852 57.263 207.205C47.4822 201.558 38.9096 194.04 32.0344 185.08C25.1592 176.121 20.1162 165.894 17.1932 154.985C14.2702 144.077 13.5244 132.699 14.9985 121.502C16.4727 110.305 20.1378 99.508 25.7846 89.727L100.263 132.727L174.741 175.727Z" fill="#FC716F"/>
<path d="M71.2 138.985C67.399 138.985 64.318 136.299 64.318 132.985C64.318 129.672 67.399 126.985 71.2 126.985C76.791 126.985 84.318 132.985 84.318 132.985C84.318 132.985 76.791 138.985 71.2 138.985Z" fill="#26203A"/>
<path d="M95.766 154.516C93.866 157.807 89.999 159.133 87.129 157.476C84.259 155.819 83.473 151.807 85.374 148.516C88.169 143.674 97.129 140.155 97.129 140.155C97.129 140.155 98.562 149.674 95.766 154.516Z" fill="#26203A"/>
<path d="M111.384 162.186C113.284 165.477 117.151 166.802 120.021 165.146C122.891 163.489 123.677 159.477 121.776 156.186C118.981 151.343 110.021 147.825 110.021 147.825C110.021 147.825 108.588 157.343 111.384 162.186Z" fill="#26203A"/>
<path d="M27.7846 86.263L46.909 81.138L52.0333 100.263L27.7846 86.263Z" fill="#6190FF"/>
<path opacity="0.8" d="M64.158 107.263L83.282 102.138L88.406 121.263L64.158 107.263Z" fill="#6190FF"/>
<path opacity="0.6" d="M100.531 128.263L119.655 123.138L124.779 142.263L100.531 128.263Z" fill="#6190FF"/>
<path opacity="0.4" d="M136.904 149.263L156.028 144.138L161.153 163.263L136.904 149.263Z" fill="#6190FF"/>
<path opacity="0.3" d="M173.277 170.263L192.401 165.138L197.526 184.263L173.277 170.263Z" fill="#6190FF"/>
<path opacity="0.1" d="M209.65 191.263L228.774 186.138L233.899 205.263L209.65 191.263Z" fill="#6190FF"/>
<path d="M9.59808 75.7628L28.7224 70.6385L33.8468 89.763L9.59808 75.7628Z" fill="#6190FF"/>
<path opacity="0.8" d="M45.9711 96.763L65.095 91.638L70.22 110.763L45.9711 96.763Z" fill="#6190FF"/>
<path opacity="0.6" d="M82.344 117.763L101.469 112.638L106.593 131.763L82.344 117.763Z" fill="#6190FF"/>
<path opacity="0.4" d="M118.717 138.763L137.842 133.638L142.966 152.763L118.717 138.763Z" fill="#6190FF"/>
<path opacity="0.3" d="M155.09 159.763L174.215 154.638L179.339 173.763L155.09 159.763Z" fill="#6190FF"/>
<path opacity="0.1" d="M191.463 180.763L210.588 175.638L215.712 194.763L191.463 180.763Z" fill="#6190FF"/>
<path d="M34.7846 74.1385L39.909 93.263L59.033 88.138L34.7846 74.1385Z" fill="#6190FF"/>
<path opacity="0.8" d="M71.158 95.138L76.282 114.263L95.406 109.138L71.158 95.138Z" fill="#6190FF"/>
<path opacity="0.6" d="M107.531 116.138L112.655 135.263L131.779 130.138L107.531 116.138Z" fill="#6190FF"/>
<path opacity="0.4" d="M143.904 137.138L149.028 156.263L168.153 151.138L143.904 137.138Z" fill="#6190FF"/>
<path opacity="0.3" d="M180.277 158.138L185.401 177.263L204.526 172.138L180.277 158.138Z" fill="#6190FF"/>
<path opacity="0.1" d="M216.65 179.138L221.774 198.263L240.899 193.138L216.65 179.138Z" fill="#6190FF"/>
<path d="M16.5981 63.6385L21.7224 82.763L40.8468 77.6385L16.5981 63.6385Z" fill="#6190FF"/>
<path opacity="0.8" d="M52.9711 84.638L58.095 103.763L77.22 98.638L52.9711 84.638Z" fill="#6190FF"/>
<path opacity="0.6" d="M89.344 105.638L94.469 124.763L113.593 119.638L89.344 105.638Z" fill="#6190FF"/>
<path opacity="0.4" d="M125.717 126.638L130.842 145.763L149.966 140.638L125.717 126.638Z" fill="#6190FF"/>
<path opacity="0.3" d="M162.09 147.638L167.215 166.763L186.339 161.638L162.09 147.638Z" fill="#6190FF"/>
<path opacity="0.1" d="M198.463 168.638L203.588 187.763L222.712 182.638L198.463 168.638Z" fill="#6190FF"/>
<mask id="mask0" mask-type="alpha" maskUnits="userSpaceOnUse" x="-2" y="82" width="28" height="121">
<path d="M12.9494 82.165L25.7894 89.725V202.165L5.4494 172.165L-1.5506 137.665L1.9494 103.165L12.9494 82.165Z" fill="#C4C4C4"/>
</mask>
<g mask="url(#mask0)">
<g style="mix-blend-mode:overlay">
<g style="mix-blend-mode:overlay">
<path fill-rule="evenodd" clip-rule="evenodd" d="M178.205 177.727C153.352 220.773 98.309 235.522 55.263 210.669C12.2165 185.816 -2.5323 130.773 22.3205 87.727L13.6603 82.727C-13.954 130.556 2.4335 191.715 50.2628 219.33C98.092 246.944 159.251 230.556 186.865 182.727L178.205 177.727Z" fill="white" fill-opacity="0.2"/>
</g>
<g style="mix-blend-mode:overlay">
<path fill-rule="evenodd" clip-rule="evenodd" d="M176.382 189.583L180.392 192.57C182.712 189.455 184.876 186.173 186.865 182.727L178.205 177.727C176.41 180.835 174.461 183.793 172.373 186.596L176.382 189.583ZM13.6603 82.727C11.6708 86.173 9.90981 89.688 8.37241 93.254L12.964 95.234L17.5556 97.213C18.9394 94.002 20.5259 90.835 22.3205 87.727L13.6603 82.727ZM8.15941 109.343L3.31391 108.11C1.35401 115.811 0.34831 123.634 0.25351 131.417L5.25311 131.478L10.2528 131.539C10.3381 124.536 11.2429 117.5 13.005 110.576L8.15941 109.343ZM6.24121 146.355L1.29351 147.076C2.42661 154.855 4.47001 162.481 7.37831 169.785L12.0236 167.935L16.6688 166.086C14.0498 159.508 12.2095 152.64 11.189 145.635L6.24121 146.355ZM18.6065 181.313L14.3071 183.866C18.2809 190.559 23.0634 196.831 28.6113 202.521L32.1911 199.03L35.7709 195.539C30.7828 190.424 26.4814 184.783 22.9058 178.761L18.6065 181.313ZM43.4065 208.847L40.4197 212.856C43.5344 215.177 46.817 217.34 50.2628 219.33C53.7086 221.319 57.224 223.08 60.79 224.617L62.769 220.026L64.749 215.434C61.538 214.05 58.371 212.464 55.263 210.669C52.1545 208.875 49.1969 206.925 46.3934 204.837L43.4065 208.847ZM76.878 224.83L75.645 229.676C83.347 231.636 91.17 232.641 98.953 232.736L99.014 227.737L99.075 222.737C92.071 222.652 85.036 221.747 78.112 219.985L76.878 224.83ZM137.321 225.611C130.017 228.52 122.391 230.563 114.612 231.696L113.891 226.749L113.17 221.801C120.176 220.78 127.044 218.94 133.621 216.321L135.471 220.966L137.321 225.611ZM148.849 214.383L151.402 218.683C158.095 214.709 164.367 209.926 170.057 204.379L166.566 200.799L163.075 197.219C157.96 202.207 152.319 206.508 146.297 210.084L148.849 214.383Z" fill="white" fill-opacity="0.2"/>
</g>
<g style="mix-blend-mode:overlay">
<path d="M174.741 175.727C169.094 185.508 161.576 194.08 152.616 200.955C143.656 207.83 133.43 212.874 122.521 215.797C111.612 218.72 100.235 219.465 89.038 217.991C77.84 216.517 67.043 212.852 57.263 207.205C47.4822 201.558 38.9096 194.04 32.0344 185.08C25.1592 176.121 20.1162 165.894 17.1932 154.985C14.2702 144.077 13.5244 132.699 14.9985 121.502C16.4727 110.305 20.1378 99.508 25.7846 89.727L100.263 132.727L174.741 175.727Z" fill="white" fill-opacity="0.2"/>
</g>
</g>
</g>
</g>
<defs>
<clipPath id="clip0">
<rect width="241" height="233" fill="white"/>
</clipPath>
</defs>
</svg>
