<svg width="32" height="32" viewBox="0 0 32 32" fill="none" xmlns="http://www.w3.org/2000/svg">
<path d="M6.66667 4C5.18667 4 4 5.18667 4 6.66667V25.3333C4 26.0406 4.28095 26.7189 4.78105 27.219C5.28115 27.719 5.95942 28 6.66667 28H25.3333C26.0406 28 26.7189 27.719 27.219 27.219C27.719 26.7189 28 26.0406 28 25.3333V6.66667C28 5.18667 26.8 4 25.3333 4H6.66667ZM21.04 6.66667H25.3333V22.9067C24.9867 21.84 23.5867 21.0533 22.4 21.0533H21.0667V17.0533C21.0667 16.6997 20.9262 16.3606 20.6761 16.1105C20.4261 15.8605 20.087 15.72 19.7333 15.72H11.7333V13.0533H14.4C14.7536 13.0533 15.0928 12.9129 15.3428 12.6628C15.5929 12.4128 15.7333 12.0736 15.7333 11.72V9.05333H18.4C19.7733 9.05333 20.8933 8 21.04 6.66667ZM6.66667 13.72L13.0667 19.72V21.0533C13.0667 22.5333 14.2667 23.72 15.7333 23.72V25.3333H6.66667V13.72Z" fill="#26203A"/>
</svg>
