<svg width="144" height="144" viewBox="0 0 144 144" fill="none" xmlns="http://www.w3.org/2000/svg">
<circle cx="72" cy="72" r="72" fill="#FFF0CA"/>
<circle cx="72" cy="72" r="67" stroke="#F9B42E" stroke-opacity="0.8" stroke-width="10"/>
<path fill-rule="evenodd" clip-rule="evenodd" d="M25.985 16.6205C10.1077 29.8276 0 49.7334 0 72C0 94.2666 10.1077 114.172 25.985 127.38V16.6205Z" fill="white" fill-opacity="0.2"/>
<path d="M61.5626 17.4364C65.5131 15.8 69.8587 18.7035 69.8587 22.9796V52.3451C69.8587 57.6905 63.3958 60.3675 59.616 56.5877L38.8515 35.8232C35.8279 32.7996 36.8475 27.6737 40.7981 26.0373L61.5626 17.4364Z" fill="#F9B42E"/>
<path d="M82.4374 17.4364C78.4869 15.8 74.1413 18.7035 74.1413 22.9796V52.3451C74.1413 57.6905 80.6042 60.3675 84.384 56.5877L105.148 35.8232C108.172 32.7996 107.153 27.6737 103.202 26.0373L82.4374 17.4364Z" fill="#F9B42E"/>
<path d="M117.963 40.7981C116.326 36.8475 111.2 35.8279 108.177 38.8515L87.4123 59.616C83.6325 63.3958 86.3095 69.8587 91.6549 69.8587H121.02C125.296 69.8587 128.2 65.5131 126.564 61.5626L117.963 40.7981Z" fill="#F9B42E"/>
<path d="M126.564 82.4374C128.2 78.4869 125.296 74.1413 121.02 74.1413H91.655C86.3095 74.1413 83.6325 80.6042 87.4123 84.384L108.177 105.148C111.2 108.172 116.326 107.153 117.963 103.202L126.564 82.4374Z" fill="#F9B42E"/>
<path d="M103.202 117.963C107.153 116.326 108.172 111.2 105.148 108.177L84.384 87.4123C80.6042 83.6325 74.1413 86.3095 74.1413 91.655V121.02C74.1413 125.296 78.4869 128.2 82.4374 126.564L103.202 117.963Z" fill="#F9B42E"/>
<path d="M61.5626 126.564C65.5131 128.2 69.8587 125.296 69.8587 121.02V91.6549C69.8587 86.3095 63.3958 83.6325 59.616 87.4123L38.8515 108.177C35.8279 111.2 36.8475 116.326 40.7981 117.963L61.5626 126.564Z" fill="#F9B42E"/>
<path d="M26.0373 103.202C27.6737 107.153 32.7996 108.172 35.8232 105.148L56.5877 84.384C60.3675 80.6042 57.6905 74.1413 52.3451 74.1413H22.9796C18.7035 74.1413 15.8 78.4869 17.4364 82.4374L26.0373 103.202Z" fill="#F9B42E"/>
<path d="M22.9796 69.8587C18.7035 69.8587 15.8 65.5131 17.4364 61.5626L26.0373 40.7981C27.6737 36.8475 32.7996 35.8279 35.8232 38.8515L56.5877 59.616C60.3675 63.3958 57.6905 69.8587 52.3451 69.8587H22.9796Z" fill="#F9B42E"/>
</svg>
