<svg width="32" height="32" viewBox="0 0 32 32" fill="none" xmlns="http://www.w3.org/2000/svg">
<path d="M21.3334 22.6667V25.3334H2.66675V22.6667C2.66675 22.6667 2.66675 17.3334 12.0001 17.3334C21.3334 17.3334 21.3334 22.6667 21.3334 22.6667ZM16.6667 10C16.6667 9.07704 16.3931 8.17479 15.8803 7.40736C15.3675 6.63993 14.6387 6.04179 13.7859 5.68858C12.9332 5.33537 11.9949 5.24296 11.0897 5.42302C10.1844 5.60309 9.3529 6.04754 8.70025 6.70019C8.04761 7.35283 7.60315 8.18435 7.42308 9.0896C7.24302 9.99484 7.33543 10.9332 7.68864 11.7859C8.04185 12.6386 8.63999 13.3674 9.40742 13.8802C10.1749 14.393 11.0771 14.6667 12.0001 14.6667C13.2378 14.6667 14.4247 14.175 15.2999 13.2999C16.1751 12.4247 16.6667 11.2377 16.6667 10V10ZM21.2534 17.3334C22.0731 17.9677 22.7438 18.7739 23.2183 19.6954C23.6929 20.6168 23.9597 21.631 24.0001 22.6667V25.3334H29.3334V22.6667C29.3334 22.6667 29.3334 17.8267 21.2534 17.3334ZM20.0001 5.33335C19.0823 5.32824 18.1848 5.60263 17.4267 6.12002C18.2367 7.25167 18.6722 8.6084 18.6722 10C18.6722 11.3916 18.2367 12.7484 17.4267 13.88C18.1848 14.3974 19.0823 14.6718 20.0001 14.6667C21.2378 14.6667 22.4247 14.175 23.2999 13.2999C24.1751 12.4247 24.6667 11.2377 24.6667 10C24.6667 8.76234 24.1751 7.57536 23.2999 6.70019C22.4247 5.82502 21.2378 5.33335 20.0001 5.33335V5.33335Z" fill="#26203A"/>
</svg>
