<svg width="104" height="108" viewBox="0 0 104 108" fill="none" xmlns="http://www.w3.org/2000/svg">
<path d="M32 5.547C44.376 -1.59831 59.624 -1.59831 72 5.547L83.9615 12.453C96.3376 19.5983 103.962 32.8034 103.962 47.094V60.906C103.962 75.1966 96.3376 88.4017 83.9615 95.547L72 102.453C59.624 109.598 44.376 109.598 32 102.453L20.0385 95.547C7.66243 88.4017 0.038475 75.1966 0.038475 60.906V47.094C0.038475 32.8034 7.66243 19.5983 20.0385 12.453L32 5.547Z" fill="#FFF0CA"/>
<path d="M70.25 8.57809L82.2115 15.4841C93.5047 22.0042 100.462 34.0538 100.462 47.094V60.906C100.462 73.9462 93.5047 85.9958 82.2115 92.5159L70.25 99.4219C58.9569 105.942 45.0431 105.942 33.75 99.4219L21.7885 92.5159C10.4953 85.9958 3.53848 73.9462 3.53848 60.906V47.094C3.53848 34.0538 10.4953 22.0042 21.7885 15.4841L33.75 8.57809C45.0431 2.058 58.9569 2.058 70.25 8.57809Z" stroke="#FAD54F" stroke-opacity="0.8" stroke-width="7"/>
<path fill-rule="evenodd" clip-rule="evenodd" d="M22 11.3201L20.0378 12.453C7.6618 19.5983 0.0378418 32.8034 0.0378418 47.094V60.906C0.0378418 75.1966 7.6618 88.4017 20.0378 95.547L22 96.6798V11.3201Z" fill="white" fill-opacity="0.2"/>
<path d="M48.5332 36.1455C49.85 35.6 51.2985 36.5678 51.2985 37.9932V47.4781C51.2985 49.2599 49.1442 50.1522 47.8843 48.8923L41.1775 42.1855C40.1696 41.1776 40.5095 39.469 41.8264 38.9235L48.5332 36.1455Z" fill="#BB9409" fill-opacity="0.3"/>
<path d="M67.0765 43.8264C66.531 42.5095 64.8224 42.1696 63.8145 43.1775L57.1077 49.8843C55.8478 51.1442 56.7401 53.2985 58.5219 53.2985H68.0068C69.4321 53.2985 70.4 51.85 69.8545 50.5332L67.0765 43.8264Z" fill="#BB9409" fill-opacity="0.3"/>
<path d="M62.1736 69.0765C63.4905 68.531 63.8304 66.8224 62.8225 65.8145L56.1157 59.1077C54.8558 57.8478 52.7015 58.7401 52.7015 60.5219V70.0068C52.7015 71.4321 54.15 72.4 55.4668 71.8545L62.1736 69.0765Z" fill="#BB9409" fill-opacity="0.3"/>
<path d="M36.9235 64.1736C37.469 65.4905 39.1776 65.8304 40.1855 64.8225L46.8923 58.1157C48.1522 56.8558 47.2599 54.7015 45.4781 54.7015H35.9932C34.5678 54.7015 33.6 56.15 34.1455 57.4668L36.9235 64.1736Z" fill="#BB9409" fill-opacity="0.3"/>
</svg>
